{
  "accessors": [
    {
      "bufferView": 1,
      "componentType": 5126,
      "count": 842,
      "max": [
        0.7880204319953918,
        1.368294596672058,
        0.592129111289978
      ],
      "min": [
        -0.39623749256134033,
        -2.4317054748535156,
        -0.5921287536621094
      ],
      "type": "VEC3"
    },
    {
      "bufferView": 1,
      "byteOffset": 10104,
      "componentType": 5126,
      "count": 842,
      "max": [
        0.9999673366546631,
        1.0,
        0.9999673366546631
      ],
      "min": [
        -0.9999673366546631,
        -1.0,
        -0.9999673366546631
      ],
      "type": "VEC3"
    },
    {
      "bufferView": 0,
      "componentType": 5125,
      "count": 4752,
      "type": "SCALAR"
    },
    {
      "bufferView": 1,
      "byteOffset": 20208,
      "componentType": 5126,
      "count": 96,
      "max": [
        0.4787008762359619,
        0.4811175465583801,
        0.28280916810035706
      ],
      "min": [
        -0.08691781014204025,
        -0.03164580464363098,
        -0.28280943632125854
      ],
      "type": "VEC3"
    },
    {
      "bufferView": 1,
      "byteOffset": 21360,
      "componentType": 5126,
      "count": 96,
      "max": [
        0.9999608993530273,
        -0.0088504608720541,
        0.9999608993530273
      ],
      "min": [
        -0.9999608993530273,
        -0.12381751835346222,
        -0.9999608993530273
      ],
      "type": "VEC3"
    },
    {
      "bufferView": 0,
      "byteOffset": 19008,
      "componentType": 5125,
      "count": 288,
      "type": "SCALAR"
    }
  ],
  "asset": {
    "extras": {
      "author": "John_Ballantine (https://sketchfab.com/John_Ballantine)",
      "license": "CC-BY-4.0 (http://creativecommons.org/licenses/by/4.0/)",
      "source": "https://sketchfab.com/3d-models/bowling-pin-952b6ca85e06404e882c5e79d847b6f2",
      "title": "Bowling Pin"
    },
    "generator": "Sketchfab-12.68.0",
    "version": "2.0"
  },
  "bufferViews": [
    {
      "buffer": 0,
      "byteLength": 20160,
      "name": "floatBufferViews",
      "target": 34963
    },
    {
      "buffer": 0,
      "byteLength": 22512,
      "byteOffset": 20160,
      "byteStride": 12,
      "name": "floatBufferViews",
      "target": 34962
    }
  ],
  "buffers": [
    {
      "byteLength": 42672,
      "uri": "scene.bin"
    }
  ],
  "materials": [
    {
      "doubleSided": true,
      "name": "material",
      "pbrMetallicRoughness": {
        "baseColorFactor": [
          0.8,
          0.8,
          0.8,
          1.0
        ],
        "metallicFactor": 0.0,
        "roughnessFactor": 0.29999999999999993
      }
    },
    {
      "doubleSided": true,
      "name": "Stipe",
      "pbrMetallicRoughness": {
        "baseColorFactor": [
          1.0,
          0.0,
          0.0,
          1.0
        ],
        "metallicFactor": 0.0,
        "roughnessFactor": 0.6995045731707317
      }
    }
  ],
  "meshes": [
    {
      "name": "pin_Pin_0",
      "primitives": [
        {
          "attributes": {
            "NORMAL": 1,
            "POSITION": 0
          },
          "indices": 2,
          "material": 0,
          "mode": 4
        }
      ]
    },
    {
      "name": "pin_Stipe_0",
      "primitives": [
        {
          "attributes": {
            "NORMAL": 4,
            "POSITION": 3
          },
          "indices": 5,
          "material": 1,
          "mode": 4
        }
      ]
    }
  ],
  "nodes": [
    {
      "children": [
        1
      ],
      "matrix": [
        0.0010000000474974513,
        0.0,
        0.0,
        0.0,
        0.0,
        2.220446154715841e-19,
        -0.0010000000474974513,
        0.0,
        0.0,
        0.0010000000474974513,
        2.220446154715841e-19,
        0.0,
        0.0,
        0.0,
        0.0,
        1.0
      ],
      "name": "Sketchfab_model"
    },
    {
      "children": [
        2
      ],
      "matrix": [
        1.0,
        0.0,
        0.0,
        0.0,
        0.0,
        0.0,
        1.0,
        0.0,
        0.0,
        -1.0,
        0.0,
        0.0,
        0.0,
        0.0,
        0.0,
        1.0
      ],
      "name": "fd2674c384664753bfb06fefc8eda4b2.fbx"
    },
    {
      "children": [
        3,
        6,
        9
      ],
      "name": "RootNode"
    },
    {
      "children": [
        4,
        5
      ],
      "matrix": [
        100.0,
        0.0,
        0.0,
        0.0,
        0.0,
        99.99999999999866,
        1.6292067073209114e-05,
        0.0,
        0.0,
        -1.6292067073209114e-05,
        99.99999999999866,
        0.0,
        -19.589149475097656,
        243.17054748535156,
        7.143930361053208e-06,
        1.0
      ],
      "name": "pin"
    },
    {
      "mesh": 0,
      "name": "pin_Pin_0"
    },
    {
      "mesh": 1,
      "name": "pin_Stipe_0"
    },
    {
      "children": [
        7
      ],
      "matrix": [
        -29.08647719990347,
        -5.518906457566863,
        -95.51711910171437,
        0.0,
        56.63930913109449,
        79.46723428563203,
        -21.83912397841966,
        0.0,
        77.11008775993375,
        -60.45246356562044,
        -19.98834696773717,
        0.0,
        407.6245422363281,
        590.38623046875,
        -100.54539489746094,
        1.0
      ],
      "name": "Lamp"
    },
    {
      "children": [
        8
      ],
      "matrix": [
        1.0,
        0.0,
        0.0,
        0.0,
        0.0,
        2.220446049250313e-16,
        1.0,
        0.0,
        0.0,
        -1.0,
        2.220446049250313e-16,
        0.0,
        0.0,
        0.0,
        0.0,
        1.0
      ],
      "name": "Object_7"
    },
    {
      "name": "Object_8"
    },
    {
      "children": [
        10
      ],
      "matrix": [
        -65.15583280329096,
        -44.52713576570858,
        -61.41703047373549,
        0.0,
        -32.40134137821245,
        89.53957451233616,
        -30.542088974418615,
        0.0,
        68.59205472129975,
        -1.0718647115348782e-05,
        -72.7676336239627,
        0.0,
        748.1131591796875,
        534.3665161132813,
        650.7639770507813,
        1.0
      ],
      "name": "Camera"
    },
    {
      "name": "Object_10"
    }
  ],
  "scene": 0,
  "scenes": [
    {
      "name": "Sketchfab_Scene",
      "nodes": [
        0
      ]
    }
  ]
}
